<svg width="1044" height="1009" viewBox="0 0 1044 1009" fill="none" xmlns="http://www.w3.org/2000/svg">
<path d="M121.038 219.766L115.184 191.912H115.296L157.406 157.384L157.856 157.702L121.038 219.766ZM115.747 192.123L121.264 218.389L156.618 158.761L115.747 192.123Z" fill="#CCCCCC" fill-opacity="0.09"/>
<path d="M8.33203 368.994L31.9766 277.169L54.4952 334.467H54.3826L8.44462 368.994H8.33203ZM32.0892 278.863L9.23278 367.617L53.8196 334.255L32.0892 278.863Z" fill="#CCCCCC" fill-opacity="0.09"/>
<path d="M81.4043 234.169L82.7554 187.78L121.6 219.13L81.4043 234.169ZM83.2058 188.839L81.9673 233.428L120.587 219.024L83.2058 188.839Z" fill="#CCCCCC" fill-opacity="0.09"/>
<path d="M56.4095 264.99V264.566L74.1992 255.034L96.6052 260.33V260.859L56.2969 265.096L56.4095 264.99ZM74.1992 255.564L57.648 264.354L95.1415 260.33L74.3118 255.458L74.1992 255.564Z" fill="#CCCCCC" fill-opacity="0.09"/>
<path d="M96.6044 260.965L81.4043 233.64L121.825 218.494L96.6052 260.859L96.6044 260.965ZM82.0799 233.957L96.6044 259.906L120.587 219.553L82.0799 233.957Z" fill="#CCCCCC" fill-opacity="0.09"/>
<path d="M73.8613 255.354L81.7428 233.112L97.1681 260.755L73.8613 255.354ZM81.8554 234.383L74.6495 254.93L96.2673 259.908L81.968 234.278L81.8554 234.383Z" fill="#CCCCCC" fill-opacity="0.09"/>
<path d="M0.451172 480.309L27.4735 421.74L36.7061 438.262L1.01414 480.521L0.563765 480.309H0.451172ZM27.4735 422.905L1.6897 478.826L36.0306 438.262L27.4735 422.905Z" fill="#CCCCCC" fill-opacity="0.09"/>
<path d="M95.4785 372.596V372.067L176.545 370.266L167.088 394.414L95.4785 372.596ZM175.757 370.796L97.0548 372.596L166.75 393.884L175.757 370.902V370.796Z" fill="#CCCCCC" fill-opacity="0.09"/>
<path d="M53.9307 334.786V334.574L31.4121 277.488L91.9872 320.17L53.8181 334.892L53.9307 334.786ZM32.538 278.865L54.2685 334.151L90.9738 319.958L32.538 278.865Z" fill="#CCCCCC" fill-opacity="0.09"/>
<path d="M69.9199 417.076L95.3659 372.064H95.5911L167.876 394.199L166.975 394.411L69.9199 417.076ZM95.5911 372.699L70.9333 416.335L165.962 394.093L95.7037 372.699H95.5911Z" fill="#CCCCCC" fill-opacity="0.09"/>
<path d="M220.117 220.404L261.664 166.071L277.202 213.625H276.864L220.117 220.404ZM261.439 167.13L221.243 219.768L276.526 213.202L261.439 167.13Z" fill="#CCCCCC" fill-opacity="0.09"/>
<path d="M36.2561 438.684L27.0234 422.162L70.4844 416.443L70.7095 416.866L36.3687 438.684H36.2561ZM27.8116 422.585L36.4813 437.943L69.471 417.078L27.9242 422.585H27.8116Z" fill="#CCCCCC" fill-opacity="0.09"/>
<path d="M220.682 220.507L156.842 157.278H157.517L262.004 166.386L220.682 220.507ZM158.193 157.913L220.569 219.766L260.99 166.81L158.193 157.913Z" fill="#CCCCCC" fill-opacity="0.09"/>
<path d="M31.3009 539.828L0 479.882L57.8728 507.207L57.6476 507.419L31.1883 539.722L31.3009 539.828ZM1.23852 481.047L31.4135 538.875L57.1973 507.419L1.23852 480.941V481.047Z" fill="#CCCCCC" fill-opacity="0.09"/>
<path d="M123.29 301.847L123.064 301.423L217.868 260.753L215.954 279.923H215.729L123.29 301.953V301.847ZM217.305 261.494L125.992 300.682L215.503 279.499L217.305 261.494Z" fill="#CCCCCC" fill-opacity="0.09"/>
<path d="M261.443 167.34L252.098 113.537L281.822 133.66L261.443 167.446V167.34ZM252.773 114.596L261.668 165.858L281.034 133.766L252.773 114.596Z" fill="#CCCCCC" fill-opacity="0.09"/>
<path d="M156.615 157.699L252.657 113.64L261.89 166.808H261.552L156.615 157.699ZM252.207 114.381L158.529 157.381L261.214 166.278L252.207 114.381Z" fill="#CCCCCC" fill-opacity="0.09"/>
<path d="M196.249 457.539L196.024 457.115L166.412 393.78L238.472 402.253L196.249 457.539ZM167.313 394.415L196.362 456.586L237.571 402.676L167.425 394.415H167.313Z" fill="#CCCCCC" fill-opacity="0.09"/>
<path d="M156.731 329.598H156.506L122.615 301.531L215.617 279.502L215.842 279.925L156.731 329.598ZM123.854 301.743L156.731 328.857L214.716 280.137L123.741 301.743H123.854Z" fill="#CCCCCC" fill-opacity="0.09"/>
<path d="M537.406 140.12L518.266 83.7755L518.716 83.5636L550.58 125.081L537.294 140.12H537.406ZM519.279 85.1523L537.519 139.061L549.904 125.081L519.166 85.1523H519.279Z" fill="#CCCCCC" fill-opacity="0.09"/>
<path d="M0.226562 480.515L0.451748 480.303L36.4815 437.832V438.256L57.9868 507.84L0.226562 480.515ZM36.2563 438.892L1.12731 480.409L57.1986 506.887L36.2563 438.892Z" fill="#CCCCCC" fill-opacity="0.09"/>
<path d="M57.3094 507.42L36.0293 438.259H36.1419L70.8205 416.23V416.759L57.8723 507.42H57.3094ZM36.7049 438.471L57.5346 506.149L70.2576 417.289L36.8174 438.471H36.7049Z" fill="#CCCCCC" fill-opacity="0.09"/>
<path d="M301.861 275.686L301.636 275.156L276.527 213.304H276.753L352.64 185.979L352.302 186.614L301.861 275.792V275.686ZM277.203 213.516L301.973 274.415L351.514 186.826L277.203 213.516Z" fill="#CCCCCC" fill-opacity="0.09"/>
<path d="M94.6895 372.596L95.365 372.173L156.728 328.855V329.173L176.545 370.796H176.094L94.6895 372.596ZM156.503 329.596L96.2657 372.067L175.644 370.266L156.503 329.596Z" fill="#CCCCCC" fill-opacity="0.09"/>
<path d="M217.305 261.386V261.069L220.457 219.657L278.555 253.867L217.305 261.281V261.386ZM220.908 220.61L217.868 260.857L276.979 253.655L220.908 220.61Z" fill="#CCCCCC" fill-opacity="0.09"/>
<path d="M400.944 127.409V126.879L397.566 66.4034L462.87 72.0167L462.42 72.4404L400.832 127.514L400.944 127.409ZM398.129 66.933L401.395 126.349L461.744 72.4404L398.129 67.0389V66.933Z" fill="#CCCCCC" fill-opacity="0.09"/>
<path d="M12.1602 614.711L32.3143 586.009H32.5395L92.439 606.768V607.297L12.1602 614.817V614.711ZM32.5395 586.645L13.2861 614.076L91.2005 606.768L32.5395 586.539V586.645Z" fill="#CCCCCC" fill-opacity="0.09"/>
<path d="M276.979 213.619L276.754 213.196L327.871 176.338L352.867 186.4L277.092 213.619H276.979ZM327.871 176.974L278.443 212.56L351.29 186.4L327.759 176.974H327.871Z" fill="#CCCCCC" fill-opacity="0.09"/>
<path d="M69.6953 416.657L167.201 393.886L169.565 460.717L169.228 460.505L69.8079 416.657H69.6953ZM166.75 394.522L71.2716 416.869L169.002 459.975L166.75 394.522Z" fill="#CCCCCC" fill-opacity="0.09"/>
<path d="M263.018 307.778L277.655 253.339L302.425 275.157L302.2 275.369L263.018 307.884V307.778ZM277.88 254.293L263.918 306.401L301.524 275.157L277.88 254.293Z" fill="#CCCCCC" fill-opacity="0.09"/>
<path d="M92.213 607.613L91.9878 607.083L57.084 507.102H57.4218L160.107 500.006L92.1004 607.613H92.213ZM57.8721 507.526L92.3256 606.342L159.206 500.43L57.8723 507.42L57.8721 507.526Z" fill="#CCCCCC" fill-opacity="0.09"/>
<path d="M159.545 500.218L169.003 460.077L196.926 456.794L196.475 457.217L159.995 500.429L159.545 500.218ZM169.453 460.501L160.333 499.264L195.687 457.429L169.453 460.501Z" fill="#CCCCCC" fill-opacity="0.09"/>
<path d="M353.316 0.423647L353.542 0L529.524 47.4484L462.306 72.4436L353.316 0.423647ZM527.836 47.4484L355.005 0.847293L462.419 71.8081L527.948 47.4484H527.836Z" fill="#CCCCCC" fill-opacity="0.09"/>
<path d="M384.166 241.795L383.941 241.371L351.627 186.191L406.009 187.568V187.886L384.279 241.795H384.166ZM352.528 186.615L384.054 240.524L405.109 187.992L352.415 186.615H352.528Z" fill="#CCCCCC" fill-opacity="0.09"/>
<path d="M57.5371 507.211L169.567 459.974V460.504L159.997 500.644H159.772L57.5371 507.74V507.211ZM168.779 460.716L59.0008 506.999L159.546 500.009L168.779 460.716Z" fill="#CCCCCC" fill-opacity="0.09"/>
<path d="M351.854 186.401L356.582 135.987L406.236 188.096L351.854 186.719V186.401ZM357.033 137.152L352.417 186.189L404.997 187.566L356.92 137.152H357.033Z" fill="#CCCCCC" fill-opacity="0.09"/>
<path d="M400.605 126.985L462.644 71.4876L455.889 134.187H455.663L400.605 127.091V126.985ZM461.969 72.7586L401.731 126.668L455.438 133.552L461.969 72.7586Z" fill="#CCCCCC" fill-opacity="0.09"/>
<path d="M530.539 190.637L537.407 139.27L566.006 146.684L530.652 190.637H530.539ZM537.745 139.906L531.215 188.837L564.88 147.002L537.632 139.906H537.745Z" fill="#CCCCCC" fill-opacity="0.09"/>
<path d="M304.565 341.777L304.115 341.354L263.131 306.932L263.356 306.72L302.313 274.417L304.678 341.671L304.565 341.777ZM263.919 307.038L304.002 340.612L301.75 275.582L263.919 306.932V307.038Z" fill="#CCCCCC" fill-opacity="0.09"/>
<path d="M30.1758 694.674L75.8885 660.465L76.3389 660.782L52.807 703.147L30.2884 694.674H30.1758ZM75.213 661.63L31.1891 694.568L52.4692 702.512L75.213 661.63Z" fill="#CCCCCC" fill-opacity="0.09"/>
<path d="M116.647 819.44L116.421 819.016L52.1309 702.301L154.365 742.972L116.759 819.44H116.647ZM53.2568 703.255L116.647 818.275L153.577 743.183L53.2568 703.255Z" fill="#CCCCCC" fill-opacity="0.09"/>
<path d="M461.408 72.2313L529.077 47.1302L518.831 84.0934L461.408 72.3372V72.2313ZM528.288 47.8716L463.21 72.0194L518.38 83.352L528.288 47.7657V47.8716Z" fill="#CCCCCC" fill-opacity="0.09"/>
<path d="M95.14 688.846V688.634L75.5488 660.355H75.9992L143.442 653.895L95.14 688.846ZM76.4496 660.779L95.2526 688.104L141.641 654.53L76.4496 660.779Z" fill="#CCCCCC" fill-opacity="0.09"/>
<path d="M537.07 139.699L550.356 124.66L566.007 147.219L537.07 139.699ZM550.356 125.507L537.971 139.487L564.768 146.477L550.244 125.507H550.356Z" fill="#CCCCCC" fill-opacity="0.09"/>
<path d="M550.353 125.4V125.188L517.926 83.0354L582.216 109.619L550.353 125.4ZM519.502 84.3064L550.578 124.765L580.978 109.725L519.502 84.3064Z" fill="#CCCCCC" fill-opacity="0.09"/>
<path d="M518.266 84.0902L528.512 47.2329L598.207 57.8241V58.3536L518.266 84.1961V84.0902ZM528.962 47.7625L519.054 83.3488L597.081 58.1418L528.962 47.8684V47.7625Z" fill="#CCCCCC" fill-opacity="0.09"/>
<path d="M207.961 621.382L228.903 568.214H229.128L276.192 595.222L207.961 621.382ZM229.128 568.956L208.862 620.429L275.066 595.116L229.128 568.956Z" fill="#CCCCCC" fill-opacity="0.09"/>
<path d="M565.443 147.219L549.793 124.66L581.206 133.874L565.443 147.325V147.219ZM551.031 125.507L565.556 146.477L580.193 134.086L551.144 125.613L551.031 125.507Z" fill="#CCCCCC" fill-opacity="0.09"/>
<path d="M549.68 125.084L581.769 109.198L580.868 134.193L549.68 125.084ZM581.206 110.045L551.031 124.978L580.305 133.557L581.206 110.045Z" fill="#CCCCCC" fill-opacity="0.09"/>
<path d="M153.69 743.075L142.205 653.686L210.099 704.629L209.873 704.841L153.69 743.605V743.075ZM142.881 654.745L154.14 742.546L209.311 704.523L142.993 654.745H142.881Z" fill="#CCCCCC" fill-opacity="0.09"/>
<path d="M141.867 654.851L185.328 581.56L208.86 620.959H208.635L141.867 654.745V654.851ZM185.328 582.619L143.218 653.58L208.072 620.853L185.328 582.619Z" fill="#CCCCCC" fill-opacity="0.09"/>
<path d="M209.985 705.159L142.092 654.215L142.43 654.003L208.747 620.535L209.985 705.159ZM142.993 654.321L209.422 704.1L208.184 621.383L142.993 654.321Z" fill="#CCCCCC" fill-opacity="0.09"/>
<path d="M580.305 134.188L581.205 108.981L602.26 131.752L580.305 134.082V134.188ZM581.656 110.358L580.755 133.659L601.022 131.435L581.543 110.358H581.656Z" fill="#CCCCCC" fill-opacity="0.09"/>
<path d="M602.035 132.281L581.205 109.616L602.373 91.5055L602.035 132.281ZM581.881 109.722L601.472 131.011L601.697 92.6705L581.881 109.722Z" fill="#CCCCCC" fill-opacity="0.09"/>
<path d="M249.73 670.314L318.3 673.385L310.418 700.181H310.08L249.73 670.844V670.314ZM317.624 673.809L251.082 670.844L310.08 699.44L317.624 673.809Z" fill="#CCCCCC" fill-opacity="0.09"/>
<path d="M390.584 283.842L390.246 283.418L435.621 237.876L514.774 221.777L514.999 222.201L390.471 283.736L390.584 283.842ZM435.959 238.3L391.71 282.677L513.085 222.625L435.846 238.3H435.959Z" fill="#CCCCCC" fill-opacity="0.09"/>
<path d="M589.762 192.122L564.879 146.262L593.815 160.666V160.878L589.762 192.122ZM566.117 147.427L589.424 190.427L593.252 160.984L566.117 147.427Z" fill="#CCCCCC" fill-opacity="0.09"/>
<path d="M51.9075 702.725L95.2558 688.215H95.3684L154.029 742.866L153.692 743.289L51.7949 702.725H51.9075ZM95.1432 688.745L53.3712 702.725L152.678 742.23L95.1432 688.639V688.745Z" fill="#CCCCCC" fill-opacity="0.09"/>
<path d="M153.127 743.283L209.874 704.202L218.656 748.896H218.318L153.127 743.283ZM209.423 705.049L154.478 742.859L217.868 748.261L209.311 705.049H209.423Z" fill="#CCCCCC" fill-opacity="0.09"/>
<path d="M688.055 157.275L654.277 105.907L752.346 103.471L688.055 157.275ZM655.178 106.331L688.168 156.427L750.882 103.895L655.178 106.225V106.331Z" fill="#CCCCCC" fill-opacity="0.09"/>
<path d="M576.136 225.59L575.799 225.379L530.086 189.475L589.873 191.063L576.024 225.59H576.136ZM531.662 190.004L575.911 224.743L589.197 191.487L531.662 189.898V190.004Z" fill="#CCCCCC" fill-opacity="0.09"/>
<path d="M530.426 190.004L565.555 146.368L590.1 191.593L530.426 190.004ZM565.442 147.322L531.439 189.474L589.087 191.063L565.33 147.322H565.442Z" fill="#CCCCCC" fill-opacity="0.09"/>
<path d="M637.053 157.489L601.248 131.646L655.18 105.698L637.053 157.489ZM602.261 131.646L636.827 156.642L654.279 106.651L602.261 131.646Z" fill="#CCCCCC" fill-opacity="0.09"/>
<path d="M514.66 222.307L530.874 189.368L531.099 189.58L576.812 225.484L514.66 222.307ZM530.986 190.11L515.448 221.777L575.235 224.849L530.986 190.11Z" fill="#CCCCCC" fill-opacity="0.09"/>
<path d="M575.576 225.487L589.425 190.854L628.495 217.332L575.576 225.487ZM589.65 191.701L576.364 224.851L627.144 217.014L589.65 191.701Z" fill="#CCCCCC" fill-opacity="0.09"/>
<path d="M628.045 217.644L589.088 191.272L637.165 156.427L628.045 217.644ZM589.989 191.272L627.707 216.691L636.602 157.486L590.101 191.166L589.989 191.272Z" fill="#CCCCCC" fill-opacity="0.09"/>
<path d="M636.49 157.276V156.958L654.618 105.485L688.621 157.064L636.603 157.276H636.49ZM654.73 106.65L637.278 156.747L687.607 156.535L654.73 106.65Z" fill="#CCCCCC" fill-opacity="0.09"/>
<path d="M263.018 872.498L268.422 825.474H268.647L319.539 812.658L318.976 813.294L263.018 872.498ZM268.872 825.791L263.693 870.91L317.963 813.506L268.872 825.791Z" fill="#CCCCCC" fill-opacity="0.09"/>
<path d="M268.871 826.427L217.754 748.159L218.429 748.371L274.276 767.858V768.07L268.871 826.533V826.427ZM218.992 749.112L268.421 824.945L273.713 768.176L218.992 749.112Z" fill="#CCCCCC" fill-opacity="0.09"/>
<path d="M687.266 216.483L636.262 156.749L688.28 156.537L687.266 216.377V216.483ZM637.388 157.278L686.703 215.106L687.717 157.066L637.388 157.278Z" fill="#CCCCCC" fill-opacity="0.09"/>
<path d="M798.398 233.958L802.227 195.935H802.452L859.649 181.214L859.874 181.637L798.398 233.958ZM802.79 196.359L799.074 232.793L858.636 181.955L802.677 196.359H802.79Z" fill="#CCCCCC" fill-opacity="0.09"/>
<path d="M718.457 202.504V201.975L802.789 195.832V196.149L798.961 233.642H798.623L718.457 202.504ZM802.226 196.361L719.695 202.398L798.511 232.901L802.226 196.361Z" fill="#CCCCCC" fill-opacity="0.09"/>
<path d="M805.941 339.447L805.604 339.023L838.03 305.767L842.534 319.217L805.941 339.341V339.447ZM837.918 306.826L807.292 338.176L842.084 319.006L838.03 306.826H837.918Z" fill="#CCCCCC" fill-opacity="0.09"/>
<path d="M177.334 830.664L268.872 825.369L263.468 872.182L263.13 871.97L177.334 830.664ZM268.309 825.898L179.361 831.088L263.13 871.44L268.309 826.004V825.898Z" fill="#CCCCCC" fill-opacity="0.09"/>
<path d="M299.947 731.319L310.081 699.334H310.418L367.616 729.836L299.947 731.425V731.319ZM310.418 700.075L300.735 730.895L365.702 729.413L310.418 700.181L310.418 700.075Z" fill="#CCCCCC" fill-opacity="0.09"/>
<path d="M718.008 202.607L763.608 142.873L803.016 196.358H802.565L718.008 202.607ZM763.608 143.826L719.134 202.077L802.115 195.934L763.721 143.826H763.608Z" fill="#CCCCCC" fill-opacity="0.09"/>
<path d="M779.369 795.183L777.455 719.033L786.688 721.68V721.892L779.932 795.183H779.369ZM778.018 719.668L779.82 790.629L786.125 721.998L778.018 719.668Z" fill="#CCCCCC" fill-opacity="0.09"/>
<path d="M626.581 284.688L758.991 255.562V255.986L735.121 333.513H734.783L626.469 284.688H626.581ZM758.203 256.198L628.158 284.794L734.783 332.772L758.203 256.198Z" fill="#CCCCCC" fill-opacity="0.09"/>
<path d="M298.822 904.38L298.484 904.062L263.018 871.759V871.547L319.202 812.236L298.822 904.38ZM263.693 871.759L298.484 903.426L318.301 814.037L263.806 871.759H263.693Z" fill="#CCCCCC" fill-opacity="0.09"/>
<path d="M378.537 784.276L299.609 730.896L366.94 729.307V729.519L378.537 784.276ZM301.186 731.32L377.749 783.11L366.49 729.837L301.186 731.32Z" fill="#CCCCCC" fill-opacity="0.09"/>
<path d="M747.956 539.407L736.359 500.008L763.607 494.607L747.956 539.407ZM737.035 500.326L747.956 537.607L762.819 495.242L737.035 500.326Z" fill="#CCCCCC" fill-opacity="0.09"/>
<path d="M802.337 196.361L762.93 142.77L860.548 181.428L802.45 196.361H802.337ZM764.281 143.829L802.562 195.726L858.859 181.216L764.393 143.723L764.281 143.829Z" fill="#CCCCCC" fill-opacity="0.09"/>
<path d="M812.697 269.647L813.035 269.435L897.255 217.115L897.705 217.433L855.257 293.477H855.032L812.697 269.753V269.647ZM896.692 217.962L813.711 269.541L855.145 292.63L896.804 217.962H896.692Z" fill="#CCCCCC" fill-opacity="0.09"/>
<path d="M396.665 871.12L318.188 812.974L318.525 812.762L378.312 783.213V783.531L396.665 871.014V871.12ZM319.201 813.08L395.877 869.849L377.862 784.06L319.088 813.08H319.201Z" fill="#CCCCCC" fill-opacity="0.09"/>
<path d="M298.258 904.272V903.848L318.525 812.658L396.777 870.592H396.326L298.258 904.272ZM318.862 813.506L298.933 903.425L395.651 870.38L318.75 813.506H318.862Z" fill="#CCCCCC" fill-opacity="0.09"/>
<path d="M732.08 348.978L734.67 332.879H734.895L805.828 338.916V339.445L732.08 348.978ZM735.12 333.514L732.756 348.448L803.577 339.34L735.233 333.514H735.12Z" fill="#CCCCCC" fill-opacity="0.09"/>
<path d="M734.557 333.406V333.088L758.426 255.243L758.764 255.773L806.278 339.443L734.557 333.406ZM758.652 256.514L735.345 332.877L805.378 338.808L758.652 256.408V256.514Z" fill="#CCCCCC" fill-opacity="0.09"/>
<path d="M806.053 339.974L805.602 339.232L758.088 255.456H758.651L813.484 269.436L806.053 339.974ZM759.101 256.197L805.715 338.279L812.921 269.754L759.101 256.197Z" fill="#CCCCCC" fill-opacity="0.09"/>
<path d="M451.836 788.191L481.673 749.215H481.786L534.141 760.336L451.836 788.297V788.191ZM481.898 749.745L453.3 787.238L532.227 760.442L481.898 749.745Z" fill="#CCCCCC" fill-opacity="0.09"/>
<path d="M748.743 549.998L747.617 537.606L760.565 554.764L748.743 549.998ZM748.293 539.407L749.193 549.68L758.989 553.599L748.293 539.301V539.407Z" fill="#CCCCCC" fill-opacity="0.09"/>
<path d="M406.347 923.866L395.988 870.275H396.326L426.951 867.521V867.839L406.91 923.866H406.347ZM396.664 870.699L406.685 922.807L426.163 868.051L396.551 870.699H396.664Z" fill="#CCCCCC" fill-opacity="0.09"/>
<path d="M297.695 903.956L298.596 903.638L396.552 870.17V870.487L407.023 924.185H406.685L297.808 903.956H297.695ZM396.102 870.911L299.609 903.85L406.235 923.655L396.102 871.017V870.911Z" fill="#CCCCCC" fill-opacity="0.09"/>
<path d="M759.553 554.236L763.043 494.714L802.113 484.97L801.775 485.499L760.116 554.342H759.665L759.553 554.236ZM763.494 495.032L760.116 553.071L800.987 485.605L763.494 494.926V495.032Z" fill="#CCCCCC" fill-opacity="0.09"/>
<path d="M540.671 930.647L532.564 896.332H533.015L572.085 906.076L540.671 930.647ZM533.353 897.073L541.009 929.8L570.959 906.394L533.353 897.073Z" fill="#CCCCCC" fill-opacity="0.09"/>
<path d="M842.986 378.315V377.785L841.973 318.686L882.168 345.8L881.943 346.012L842.986 378.315ZM842.536 319.64L843.549 377.256L881.38 345.906L842.648 319.64H842.536Z" fill="#CCCCCC" fill-opacity="0.09"/>
<path d="M854.695 293.375L854.92 292.951L897.593 216.271L899.62 288.397H899.395L854.695 293.375ZM897.143 218.284L855.596 292.846L899.057 288.08L897.143 218.39V218.284Z" fill="#CCCCCC" fill-opacity="0.09"/>
<path d="M763.27 495.453L745.48 462.197L779.146 469.823L763.27 495.453ZM746.494 462.939L763.27 494.394L778.245 470.141L746.494 462.939Z" fill="#CCCCCC" fill-opacity="0.09"/>
<path d="M843.548 378.421L805.379 339.127H805.604L842.422 318.686V319.11L843.435 378.421H843.548ZM806.28 339.233L842.985 377.044L842.084 319.534L806.28 339.233Z" fill="#CCCCCC" fill-opacity="0.09"/>
<path d="M882.39 346.545L841.744 319.008L864.601 310.535L882.503 346.545H882.39ZM842.757 319.114L881.039 344.957L864.263 311.171L842.87 319.114H842.757Z" fill="#CCCCCC" fill-opacity="0.09"/>
<path d="M736.471 500.433L746.041 461.775L763.831 495.032L736.583 500.433H736.471ZM746.154 463.258L737.146 499.798L762.93 494.714L746.154 463.258Z" fill="#CCCCCC" fill-opacity="0.09"/>
<path d="M607.778 856.612L602.148 849.304H602.486L667.565 828.546L667.79 828.969L607.778 856.612ZM603.049 849.516L608.003 855.977L663.849 830.24L603.049 849.516Z" fill="#CCCCCC" fill-opacity="0.09"/>
<path d="M897.817 345.378L864.039 310.851L899.731 287.656V288.186L898.38 345.908L897.817 345.378ZM864.827 310.851L897.817 344.531L899.168 288.609L864.827 310.851Z" fill="#CCCCCC" fill-opacity="0.09"/>
<path d="M532.564 760.337L549.116 752.817H549.228L585.033 785.862L584.695 786.286L532.564 760.231V760.337ZM549.003 753.453L533.803 760.337L583.344 785.015L549.003 753.347V753.453Z" fill="#CCCCCC" fill-opacity="0.09"/>
<path d="M713.727 585.263L749.081 549.359L762.142 592.995L713.727 585.263ZM748.856 550.313L714.74 584.84L761.353 592.254L748.743 550.313H748.856Z" fill="#CCCCCC" fill-opacity="0.09"/>
<path d="M838.93 455.315L843.096 377.258L879.688 402.041L838.93 455.315ZM843.546 378.211L839.493 453.62L878.9 402.041L843.546 378.105V378.211Z" fill="#CCCCCC" fill-opacity="0.09"/>
<path d="M879.016 402.041L881.493 345.484L898.382 344.849V345.166L879.466 402.041H879.016ZM882.056 345.908L879.691 400.029L897.819 345.378L882.168 345.908H882.056Z" fill="#CCCCCC" fill-opacity="0.09"/>
<path d="M776.777 568.424L759.213 554.126L831.723 547.03V547.454L776.777 568.424ZM760.451 554.444L776.89 567.789L829.921 547.56L760.451 554.338V554.444Z" fill="#CCCCCC" fill-opacity="0.09"/>
<path d="M615.546 913.486V912.851L607.664 855.976H607.889L673.531 839.983L615.658 913.38L615.546 913.486ZM608.227 856.4L615.883 912.215L672.067 840.937L608.114 856.506L608.227 856.4Z" fill="#CCCCCC" fill-opacity="0.09"/>
<path d="M532.338 897.494L532.788 896.646L584.919 785.333L602.934 849.516H602.821L532.45 897.494H532.338ZM584.806 786.922L533.689 896.011L602.371 849.304L584.806 786.816V786.922Z" fill="#CCCCCC" fill-opacity="0.09"/>
<path d="M581.43 743.816V743.392L666.888 699.121V699.333L684.79 735.872H684.452L581.542 743.816H581.43ZM666.55 699.757L582.556 743.18L683.777 735.343L666.437 699.757H666.55Z" fill="#CCCCCC" fill-opacity="0.09"/>
<path d="M966.95 393.778L897.367 345.058H898.043L1007.93 337.75L1007.6 338.174L966.837 393.778H966.95ZM898.831 345.482L966.837 393.142L1006.92 338.386L898.831 345.482Z" fill="#CCCCCC" fill-opacity="0.09"/>
<path d="M602.486 849.938L584.471 785.755L648.311 796.982L647.973 797.299L602.486 849.938ZM585.259 786.391L602.711 848.878L647.298 797.299L585.146 786.391H585.259Z" fill="#CCCCCC" fill-opacity="0.09"/>
<path d="M884.082 561.967L887.347 508.058L909.641 533.265V533.477L884.082 561.967ZM887.798 509.329L884.758 560.484L908.965 533.265L887.91 509.329H887.798Z" fill="#CCCCCC" fill-opacity="0.09"/>
<path d="M909.413 533.902L887.119 508.589L916.056 499.163L909.413 533.902ZM888.02 508.801L909.075 532.737L915.267 499.904L887.907 508.801H888.02Z" fill="#CCCCCC" fill-opacity="0.09"/>
<path d="M745.029 674.235L713.953 584.74L762.143 592.366L745.592 674.13H745.141L745.029 674.235ZM714.629 585.375L745.141 673.176L761.467 592.789L714.629 585.375Z" fill="#CCCCCC" fill-opacity="0.09"/>
<path d="M887.457 509.012L839.154 454.679L839.492 454.255L916.393 499.586L887.569 508.906L887.457 509.012ZM840.505 455.526L887.682 508.376L915.155 499.48L840.618 455.526H840.505Z" fill="#CCCCCC" fill-opacity="0.09"/>
<path d="M917.632 428.304L878.562 401.932H879.238L967.849 393.142L917.632 428.41V428.304ZM880.026 402.25L917.632 427.669L965.935 393.777L880.026 402.25Z" fill="#CCCCCC" fill-opacity="0.09"/>
<path d="M800.988 485.499L801.325 485.181L839.157 454.149V454.361L888.247 509.223L800.875 485.499H800.988ZM839.157 454.89L802.113 485.287L886.896 508.27L839.269 454.89H839.157Z" fill="#CCCCCC" fill-opacity="0.09"/>
<path d="M761.354 592.787L776.666 567.686L822.379 600.201L761.354 592.787ZM776.891 568.428L762.254 592.364L820.465 599.354L776.891 568.322V568.428Z" fill="#CCCCCC" fill-opacity="0.09"/>
<path d="M571.072 906.393L608.115 855.555V856.191L616.109 913.171H615.772L571.185 906.393H571.072ZM607.778 856.932L571.973 905.969L615.434 912.536L607.778 856.932Z" fill="#CCCCCC" fill-opacity="0.09"/>
<path d="M777.791 719.883L744.914 674.129H745.252L807.516 657.607L807.291 658.137L777.791 719.883ZM745.702 674.447L777.679 718.93L806.502 658.454L745.702 674.447Z" fill="#CCCCCC" fill-opacity="0.09"/>
<path d="M842.085 635.467L841.859 635.044L906.375 585.371V585.901L908.514 615.662H908.289L842.085 635.573V635.467ZM905.925 586.324L843.21 634.62L907.839 615.238L905.812 586.324H905.925Z" fill="#CCCCCC" fill-opacity="0.09"/>
<path d="M615.32 912.96L615.546 912.748L672.968 839.881L696.95 948.017L696.5 947.805L615.433 912.854L615.32 912.96ZM672.63 841.046L616.108 912.748L696.162 947.169L672.63 841.046Z" fill="#CCCCCC" fill-opacity="0.09"/>
<path d="M831.162 547.246L831.612 546.928L887.909 508.165L884.644 561.544H884.306L831.162 547.246ZM887.233 509.224L832.288 547.034L884.081 560.909L887.233 509.224Z" fill="#CCCCCC" fill-opacity="0.09"/>
<path d="M841.861 635.573L821.031 599.563L907.052 585.371L841.861 635.573ZM821.819 599.987L841.974 634.832L905.138 586.218L821.819 599.987Z" fill="#CCCCCC" fill-opacity="0.09"/>
<path d="M570.85 1008.28L696.729 947.38L707.312 1008.07L570.85 1008.81V1008.28ZM696.278 948.015L571.976 1008.17L706.637 1007.43L696.278 948.015Z" fill="#CCCCCC" fill-opacity="0.09"/>
<path d="M706.749 1007.75L696.277 947.589L743.116 904.589L743.566 904.801L707.199 1007.75H706.749ZM696.84 947.695L707.086 1006.58L742.778 905.543L696.84 947.589V947.695Z" fill="#CCCCCC" fill-opacity="0.09"/>
<path d="M908.964 533.69V533.266L915.495 499.163L960.532 517.803L908.852 533.584L908.964 533.69ZM915.945 499.904L909.64 532.948L959.181 517.803L915.945 499.904Z" fill="#CCCCCC" fill-opacity="0.09"/>
<path d="M915.379 499.688V499.477L917.293 427.88H917.743L960.303 518.223L915.379 499.688ZM917.743 429.045L915.942 499.371L959.29 517.27L917.743 429.045Z" fill="#CCCCCC" fill-opacity="0.09"/>
<path d="M959.63 517.908L917.295 427.883H917.408L967.174 392.826V393.356L960.08 517.802H959.517L959.63 517.908ZM917.97 428.095L959.742 516.849L966.723 393.991L918.083 428.095H917.97Z" fill="#CCCCCC" fill-opacity="0.09"/>
<path d="M705.395 808.318L779.593 794.973L779.819 795.397L728.701 820.604L705.507 808.212L705.395 808.318ZM777.904 795.715L706.858 808.53L728.701 820.075L777.904 795.715Z" fill="#CCCCCC" fill-opacity="0.09"/>
<path d="M570.283 1009.02L570.621 1008.38L615.546 912.638H615.771L697.063 947.694L696.613 947.906L570.283 1009.02ZM615.771 913.273L571.297 1007.96L695.824 947.694L615.771 913.273Z" fill="#CCCCCC" fill-opacity="0.09"/>
<path d="M672.855 840.723L672.518 840.299L705.958 808.102H706.183L729.264 820.388L728.701 820.6L672.743 840.723H672.855ZM706.183 808.738L673.869 839.876L728.138 820.282L706.183 808.738Z" fill="#CCCCCC" fill-opacity="0.09"/>
<path d="M727.801 820.179L789.727 814.566L789.389 814.989L769.573 843.268L727.801 820.179ZM788.601 815.201L729.49 820.497L769.348 842.632L788.601 815.201Z" fill="#CCCCCC" fill-opacity="0.09"/>
<path d="M683.551 735.452H684.226L778.016 718.93V719.248L779.93 795.61L779.48 795.292L683.551 735.452ZM777.453 719.565L684.902 735.664L779.255 794.551L777.341 719.459L777.453 719.565Z" fill="#CCCCCC" fill-opacity="0.09"/>
<path d="M956.143 575.842L959.52 517.696H959.746L1043.63 493.125L1043.85 493.548L956.143 575.842ZM960.083 518.014L956.818 574.571L1042.73 493.866L960.083 518.014Z" fill="#CCCCCC" fill-opacity="0.09"/>
<path d="M858.073 714.585L857.398 713.843L806.506 657.816L806.731 657.604L842.085 634.621V635.045L858.073 714.479V714.585ZM807.294 657.922L857.173 712.784L841.747 635.575L807.407 657.922H807.294Z" fill="#CCCCCC" fill-opacity="0.09"/>
<path d="M786.012 722.107V721.789L806.954 657.501L858.296 713.952H857.846L786.124 722.107H786.012ZM807.179 658.454L786.8 721.577L857.283 713.634L807.179 658.56V658.454Z" fill="#CCCCCC" fill-opacity="0.09"/>
<path d="M789.165 815.093V814.564L873.16 813.293L880.703 838.818H880.253L789.053 815.199L789.165 815.093ZM872.822 813.822L791.079 815.093L880.028 838.076L872.822 813.822Z" fill="#CCCCCC" fill-opacity="0.09"/>
<path d="M786.352 722.101V721.572L857.961 713.416V713.734L858.749 736.081H858.411L786.352 722.101ZM857.51 714.052L788.04 721.889L858.186 735.446L857.398 713.946L857.51 714.052Z" fill="#CCCCCC" fill-opacity="0.09"/>
<path d="M743.227 905.757L728.252 819.863L728.702 820.181L769.686 842.952V843.163L743.114 905.863L743.227 905.757ZM728.927 820.816L743.339 903.851L769.011 843.057L728.927 820.816Z" fill="#CCCCCC" fill-opacity="0.09"/>
<path d="M789.053 815.199L779.258 794.969H779.596L851.768 785.755V786.179L789.053 815.199ZM780.046 795.287L789.391 814.457L850.304 786.391L780.159 795.287H780.046Z" fill="#CCCCCC" fill-opacity="0.09"/>
<path d="M899.505 732.589V732.272L905.698 673.491H906.148L933.058 733.225H932.607L899.393 732.483L899.505 732.589ZM906.148 674.55L900.068 732.06L932.27 732.801L906.148 674.55Z" fill="#CCCCCC" fill-opacity="0.09"/>
<path d="M931.819 669.997V669.679L907.611 614.923L969.537 641.613L969.2 641.824L931.819 669.891V669.997ZM908.625 615.982L932.044 669.255L968.524 641.824L908.625 615.982Z" fill="#CCCCCC" fill-opacity="0.09"/>
<path d="M932.498 733.119L905.588 673.384L932.16 669.254V669.572L932.948 733.013H932.498V733.119ZM906.376 673.808L932.498 731.848L931.709 669.889L906.376 673.808Z" fill="#CCCCCC" fill-opacity="0.09"/>
<path d="M880.367 839.454L872.598 813.506L894.779 782.05L895.229 782.262L880.141 839.454H880.367ZM873.273 813.612L880.367 837.442L894.553 783.533L873.273 813.612Z" fill="#CCCCCC" fill-opacity="0.09"/>
<path d="M742.889 905.334L743.114 904.698L769.348 842.74H769.573L880.477 838.186V838.61L743.001 905.228L742.889 905.334ZM769.686 843.163L743.902 904.275L879.239 838.715L769.798 843.164L769.686 843.163Z" fill="#CCCCCC" fill-opacity="0.09"/>
</svg>
