<svg width="28" height="28" viewBox="0 0 28 28" fill="none" xmlns="http://www.w3.org/2000/svg">
<g clip-path="url(#clip0_3068_4898)">
<path d="M4.81987 24.6119C5.96577 25.0259 7.17555 25.235 8.39392 25.2299C9.72434 25.2253 11.0446 24.9979 12.2999 24.5572C14.8233 23.6795 16.9184 22.0463 18.1994 19.9584C19.4978 17.8423 19.808 15.5133 19.0731 13.4003C19.0588 13.3601 19.0424 13.3206 19.0239 13.2822C19.2083 13.4127 19.4194 13.5007 19.642 13.5397C19.8645 13.5787 20.093 13.5678 20.3108 13.5078L27.2551 10.1382C27.4121 10.0628 27.5524 9.95692 27.668 9.82676C27.7836 9.69659 27.8722 9.54473 27.9285 9.38C27.9849 9.21528 28.0079 9.041 27.9963 8.86729C27.9846 8.69359 27.9385 8.52394 27.8606 8.36823L27.7582 8.16331C27.607 7.85971 27.344 7.62655 27.0244 7.51287C26.7049 7.39919 26.3537 7.41385 26.0447 7.55377L19.5052 10.5397C19.1793 10.6301 18.8922 10.825 18.6879 11.0945C18.4836 11.364 18.3734 11.6931 18.3744 12.0313C18.3743 12.2049 18.4039 12.3772 18.4619 12.5408L18.3332 12.6266C16.6165 11.768 12.453 12.4602 8.56301 13.8134C8.33445 13.8928 8.10659 13.9748 7.87942 14.0591C7.44952 12.4665 8.56203 11.3072 8.62257 11.2458L8.00274 10.6283C7.5788 11.0868 7.26169 11.6334 7.0742 12.2291C6.85283 12.9267 6.84671 13.6749 7.05664 14.3761C6.35664 14.6556 5.68399 14.9511 5.04748 15.2581C4.69447 13.9477 4.66314 12.5956 4.71121 11.6186C4.72064 11.4214 4.69057 11.2243 4.62275 11.0389C4.55494 10.8534 4.45076 10.6834 4.31633 10.5388C4.1819 10.3943 4.01993 10.278 3.83993 10.1969C3.65993 10.1158 3.46554 10.0714 3.26817 10.0665C3.07081 10.0616 2.87444 10.0961 2.69062 10.1681C2.50679 10.2402 2.33921 10.3482 2.19772 10.4859C2.05624 10.6236 1.94369 10.7882 1.8667 10.97C1.78971 11.1518 1.74982 11.3471 1.74939 11.5445V14.6388C1.74926 14.7014 1.72429 14.7615 1.67995 14.8058C1.63561 14.85 1.57553 14.8749 1.51286 14.875C1.36635 14.8749 1.22127 14.9039 1.08598 14.9601C0.950682 15.0163 0.827845 15.0988 0.724533 15.2027C0.621221 15.3066 0.539475 15.4298 0.483999 15.5655C0.428523 15.7011 0.400413 15.8463 0.401285 15.9928C0.420681 16.7027 0.547178 17.4055 0.776496 18.0776C0.107067 18.7943 -0.132355 19.4439 0.0650119 20.0115C0.800067 22.1245 2.48871 23.7583 4.81987 24.6119ZM12.0125 23.7305C9.6794 24.542 7.23192 24.5633 5.12071 23.7903C3.5608 23.2191 2.32618 22.2642 1.53321 21.0376C1.99067 21.1271 2.45617 21.169 2.92227 21.1626C3.19027 21.1626 3.47647 21.1522 3.78086 21.1313C5.28931 21.0278 7.10472 20.6679 9.00992 20.1023C9.0482 20.1084 10.0914 19.7667 10.5754 19.5984C11.6794 19.2163 12.7628 18.7773 13.8213 18.2832L13.8436 18.2728C14.9882 17.7342 16.0124 17.1613 16.8546 16.5839C17.6081 16.0673 18.1757 15.5784 18.5574 15.1172C18.8865 18.611 16.2176 22.2679 12.0125 23.7305ZM16.5672 14.9258C16.475 15.71 16.3215 15.8716 16.315 15.8781L16.3235 15.8866C15.9613 16.1332 15.5641 16.3792 15.1368 16.6219C15.4223 16.0569 15.6109 15.4478 15.6947 14.8203C15.7091 14.7144 15.7614 14.6172 15.842 14.5468C15.9225 14.4765 16.0258 14.4376 16.1327 14.4375C16.1945 14.4375 16.2555 14.4505 16.3119 14.4758C16.3682 14.5011 16.4186 14.538 16.4596 14.5842C16.5007 14.6303 16.5315 14.6846 16.5501 14.7435C16.5687 14.8024 16.5745 14.8646 16.5673 14.9259L16.5672 14.9258ZM26.4054 8.35078C26.5083 8.30439 26.6252 8.29967 26.7315 8.33763C26.8378 8.37558 26.9253 8.45325 26.9755 8.55433L27.078 8.75924C27.1041 8.81132 27.1194 8.86808 27.1233 8.92618C27.1271 8.98429 27.1193 9.04257 27.1003 9.09761C27.0813 9.15266 27.0515 9.20336 27.0127 9.24674C26.9738 9.29012 26.9267 9.32531 26.8741 9.35025L21.4361 11.9993C21.4317 11.7829 21.3814 11.57 21.2885 11.3746C21.1956 11.1792 21.0622 11.0057 20.8973 10.8657L26.4054 8.35078ZM19.9056 11.375C20.0425 11.3748 20.1761 11.4175 20.2875 11.4971C20.3989 11.5767 20.4825 11.6892 20.5268 11.8187C20.571 11.9483 20.5735 12.0884 20.5341 12.2195C20.4946 12.3506 20.415 12.4661 20.3066 12.5496L20.066 12.6669C19.9882 12.6875 19.9071 12.6927 19.8273 12.6824L19.9298 12.6141C19.9782 12.5825 20.0199 12.5416 20.0524 12.4938C20.0849 12.446 20.1076 12.3922 20.1193 12.3356C20.1309 12.2789 20.1311 12.2206 20.1201 12.1638C20.109 12.1071 20.0868 12.0531 20.0547 12.005C20.0226 11.9569 19.9813 11.9156 19.9332 11.8835C19.8851 11.8515 19.8311 11.8293 19.7743 11.8182C19.7176 11.8072 19.6592 11.8075 19.6026 11.8191C19.546 11.8308 19.4922 11.8535 19.4444 11.8861L19.2504 12.0154C19.2546 11.8443 19.3255 11.6816 19.4479 11.562C19.5702 11.4424 19.7345 11.3753 19.9056 11.375ZM7.97578 16.0301L8.648 15.4699C8.48912 15.2807 8.34643 15.0784 8.22143 14.8653C8.43037 14.7881 8.64001 14.713 8.85034 14.6397C11.2429 13.8076 13.5753 13.2796 15.4173 13.1533C16.2744 13.0945 16.9969 13.1288 17.5064 13.2524C17.921 13.3529 18.1837 13.5075 18.2464 13.6876C18.309 13.8677 18.1988 14.1519 17.9362 14.488C17.7842 14.6777 17.6172 14.855 17.4369 15.0181C17.4739 14.6744 17.374 14.3301 17.1589 14.0595C16.9438 13.789 16.6308 13.6141 16.2877 13.5727C15.9445 13.5312 15.5989 13.6266 15.3256 13.8381C15.0523 14.0496 14.8732 14.3603 14.8273 14.7028C14.6051 16.3386 13.6381 17.2919 13.3683 17.5292C12.3629 17.9947 11.3346 18.4095 10.2875 18.7719C9.84121 18.9272 9.39794 19.0716 8.95775 19.2052C7.22924 18.8716 6.00708 17.827 5.32272 16.0963C5.97525 15.778 6.67022 15.472 7.39445 15.183C7.56006 15.4837 7.75477 15.7674 7.97578 16.0301ZM1.3447 15.8199C1.36668 15.7976 1.39287 15.78 1.42174 15.768C1.45062 15.756 1.48159 15.7499 1.51286 15.75C1.80756 15.7497 2.09008 15.6325 2.29846 15.4241C2.50684 15.2157 2.62405 14.9332 2.62439 14.6385V11.5445C2.62449 11.3836 2.68848 11.2292 2.80229 11.1154C2.91611 11.0016 3.07045 10.9376 3.23142 10.9375C3.31371 10.9375 3.39514 10.9543 3.47074 10.9868C3.54635 11.0193 3.61457 11.0668 3.67124 11.1265C3.72792 11.1861 3.77187 11.2567 3.80042 11.3339C3.82898 11.4111 3.84154 11.4932 3.83736 11.5754C3.77479 12.8465 3.83982 14.7165 4.50493 16.4066C4.88801 17.3801 5.42986 18.1811 6.11531 18.7873C6.50566 19.1316 6.94501 19.416 7.41895 19.6311C6.41835 19.89 5.40108 20.0795 4.37439 20.1983L4.00891 20.131C3.03175 19.9681 2.28964 19.3507 1.80314 18.2961C1.47836 17.5683 1.2994 16.784 1.27639 15.9873C1.27609 15.9563 1.28197 15.9255 1.2937 15.8967C1.30543 15.868 1.32276 15.8419 1.3447 15.8199ZM0.891504 19.7241C0.830965 19.5501 0.931153 19.2848 1.1645 18.9734C1.42277 19.464 1.77571 19.8986 2.20291 20.2521C2.01056 20.2341 1.81966 20.2031 1.63154 20.1591C1.21717 20.0586 0.954449 19.9042 0.891668 19.7243V19.724L0.891504 19.7241ZM3.93689 5.6875C3.6773 5.6875 3.42354 5.76448 3.2077 5.9087C2.99186 6.05292 2.82364 6.2579 2.7243 6.49773C2.62496 6.73756 2.59896 7.00146 2.64961 7.25606C2.70025 7.51066 2.82525 7.74452 3.00881 7.92808C3.19237 8.11163 3.42623 8.23664 3.68083 8.28728C3.93543 8.33792 4.19933 8.31193 4.43916 8.21259C4.67899 8.11325 4.88397 7.94503 5.02819 7.72919C5.17241 7.51335 5.24939 7.25959 5.24939 7C5.249 6.65202 5.11059 6.31841 4.86453 6.07235C4.61848 5.8263 4.28486 5.68789 3.93689 5.6875ZM3.93689 7.4375C3.85036 7.4375 3.76577 7.41184 3.69382 7.36377C3.62188 7.3157 3.5658 7.24737 3.53269 7.16742C3.49958 7.08748 3.49091 6.99952 3.50779 6.91465C3.52467 6.82978 3.56634 6.75183 3.62753 6.69064C3.68871 6.62946 3.76667 6.58779 3.85154 6.57091C3.9364 6.55403 4.02437 6.56269 4.10431 6.5958C4.18425 6.62892 4.25258 6.68499 4.30065 6.75694C4.34873 6.82888 4.37439 6.91347 4.37439 7C4.37426 7.11599 4.32812 7.2272 4.2461 7.30922C4.16408 7.39123 4.05288 7.43737 3.93689 7.4375ZM8.31189 3.9375C8.31189 3.67791 8.23491 3.42415 8.09069 3.20831C7.94647 2.99248 7.74149 2.82425 7.50166 2.72491C7.26183 2.62557 6.99793 2.59958 6.74333 2.65022C6.48873 2.70086 6.25487 2.82587 6.07131 3.00942C5.88775 3.19298 5.76275 3.42684 5.71211 3.68144C5.66146 3.93604 5.68746 4.19994 5.7868 4.43977C5.88614 4.6796 6.05436 4.88458 6.2702 5.0288C6.48604 5.17302 6.7398 5.25 6.99939 5.25C7.34736 5.24961 7.68098 5.1112 7.92703 4.86515C8.17309 4.61909 8.3115 4.28548 8.31189 3.9375ZM6.56189 3.9375C6.56189 3.85097 6.58755 3.76638 6.63562 3.69444C6.68369 3.62249 6.75202 3.56642 6.83196 3.5333C6.91191 3.50019 6.99987 3.49153 7.08474 3.50841C7.16961 3.52529 7.24756 3.56696 7.30875 3.62814C7.36993 3.68933 7.4116 3.76728 7.42848 3.85215C7.44536 3.93702 7.4367 4.02498 7.40358 4.10492C7.37047 4.18487 7.3144 4.2532 7.24245 4.30127C7.1705 4.34934 7.08592 4.375 6.99939 4.375C6.88339 4.37487 6.77219 4.32873 6.69017 4.24672C6.60815 4.1647 6.56202 4.05349 6.56189 3.9375Z" fill="#CA3C3D"/>
<path d="M5.6875 8.75077H6.5625V9.62577H5.6875V8.75077ZM5.25 12.6883H6.125V13.5633H5.25V12.6883ZM7.875 16.6258H8.75V17.5008H7.875V16.6258ZM0.875 8.31327H1.75V9.18827H0.875V8.31327ZM4.56985 20.0523L5.0552 19.3243C3.98595 18.6114 3.93876 17.9547 3.9375 17.9271C3.93788 17.9344 3.9375 17.9383 3.9375 17.9383H3.0625C3.0625 18.0518 3.10477 19.0758 4.56985 20.0523ZM8.88612 6.76502C9.06684 6.49161 9.27134 6.2347 9.49725 5.99726L8.87813 5.37891C8.81934 5.43775 7.4375 6.83671 7.4375 8.31327H8.3125C8.3125 7.86713 8.51085 7.33174 8.88612 6.76502Z" fill="#CA3C3D"/>
</g>
<defs>
<clipPath id="clip0_3068_4898">
<rect width="28" height="28" fill="white"/>
</clipPath>
</defs>
</svg>
