<svg width="41" height="41" viewBox="0 0 41 41" fill="none" xmlns="http://www.w3.org/2000/svg">
<g clip-path="url(#clip0_3068_4902)">
<path d="M16.6562 17.2969C16.6562 16.9168 16.5435 16.5452 16.3324 16.2291C16.1212 15.9131 15.821 15.6668 15.4698 15.5213C15.1187 15.3758 14.7322 15.3378 14.3594 15.4119C13.9866 15.4861 13.6442 15.6691 13.3754 15.9379C13.1066 16.2067 12.9236 16.5491 12.8494 16.9219C12.7753 17.2947 12.8133 17.6812 12.9588 18.0323C13.1043 18.3835 13.3506 18.6837 13.6666 18.8949C13.9827 19.106 14.3543 19.2188 14.7344 19.2188C15.2441 19.2188 15.7329 19.0163 16.0933 18.6558C16.4538 18.2954 16.6562 17.8066 16.6562 17.2969ZM14.0938 17.2969C14.0938 17.1702 14.1313 17.0463 14.2017 16.941C14.2721 16.8356 14.3722 16.7535 14.4892 16.705C14.6063 16.6565 14.7351 16.6438 14.8594 16.6686C14.9836 16.6933 15.0978 16.7543 15.1874 16.8439C15.277 16.9335 15.338 17.0476 15.3627 17.1719C15.3874 17.2962 15.3747 17.425 15.3262 17.542C15.2777 17.6591 15.1956 17.7591 15.0903 17.8295C14.9849 17.8999 14.8611 17.9375 14.7344 17.9375C14.5645 17.9375 14.4015 17.87 14.2814 17.7499C14.1612 17.6297 14.0938 17.4668 14.0938 17.2969ZM19.2188 4.48438C19.5989 4.48438 19.9704 4.37166 20.2865 4.16048C20.6025 3.9493 20.8489 3.64915 20.9943 3.29797C21.1398 2.94679 21.1779 2.56037 21.1037 2.18756C21.0295 1.81475 20.8465 1.47231 20.5777 1.20353C20.3089 0.934751 19.9665 0.75171 19.5937 0.677554C19.2209 0.603398 18.8345 0.641458 18.4833 0.78692C18.1321 0.932382 17.8319 1.17871 17.6208 1.49476C17.4096 1.81082 17.2969 2.18239 17.2969 2.5625C17.2969 3.07221 17.4994 3.56105 17.8598 3.92147C18.2202 4.28189 18.709 4.48438 19.2188 4.48438ZM19.2188 1.92188C19.3455 1.92188 19.4693 1.95945 19.5747 2.02984C19.68 2.10023 19.7621 2.20029 19.8106 2.31734C19.8591 2.4344 19.8718 2.56321 19.8471 2.68748C19.8223 2.81175 19.7613 2.9259 19.6717 3.01549C19.5821 3.10508 19.468 3.1661 19.3437 3.19082C19.2195 3.21554 19.0907 3.20285 18.9736 3.15436C18.8565 3.10587 18.7565 3.02376 18.6861 2.91841C18.6157 2.81306 18.5781 2.6892 18.5781 2.5625C18.5781 2.3926 18.6456 2.22965 18.7658 2.10951C18.8859 1.98937 19.0488 1.92188 19.2188 1.92188ZM5.125 8.32813C5.50511 8.32813 5.87669 8.21541 6.19274 8.00423C6.50879 7.79305 6.75512 7.4929 6.90058 7.14172C7.04604 6.79054 7.0841 6.40412 7.00995 6.03131C6.93579 5.6585 6.75275 5.31606 6.48397 5.04728C6.21519 4.7785 5.87275 4.59546 5.49994 4.5213C5.12713 4.44715 4.74071 4.48521 4.38953 4.63067C4.03835 4.77613 3.7382 5.02246 3.52702 5.33851C3.31584 5.65456 3.20312 6.02614 3.20312 6.40625C3.20312 6.91596 3.40561 7.4048 3.76603 7.76522C4.12645 8.12564 4.61529 8.32813 5.125 8.32813ZM5.125 5.76563C5.2517 5.76563 5.37556 5.8032 5.48091 5.87359C5.58626 5.94398 5.66837 6.04403 5.71686 6.16109C5.76535 6.27815 5.77803 6.40696 5.75332 6.53123C5.7286 6.6555 5.66758 6.76965 5.57799 6.85924C5.4884 6.94883 5.37425 7.00985 5.24998 7.03457C5.12571 7.05928 4.9969 7.0466 4.87984 6.99811C4.76278 6.94962 4.66273 6.86751 4.59234 6.76216C4.52195 6.65681 4.48438 6.53295 4.48438 6.40625C4.48438 6.23635 4.55187 6.0734 4.67201 5.95326C4.79215 5.83312 4.9551 5.76563 5.125 5.76563Z" fill="#CA3C3D"/>
<path d="M29.8763 12.1721C29.2565 12.1703 28.6426 12.2916 28.07 12.5288C27.4974 12.766 26.9775 13.1144 26.5406 13.5539C24.2878 15.8084 22.3547 18.3612 20.7954 21.1408H3.20322C3.03332 21.1408 2.87037 21.2083 2.75023 21.3285C2.63009 21.4486 2.5626 21.6115 2.5626 21.7815C2.55102 25.298 3.57849 28.7395 5.51604 31.6741C7.45359 34.6087 10.2149 36.9055 13.4532 38.2763V39.719C13.4532 39.8889 13.5207 40.0518 13.6409 40.1719C13.761 40.2921 13.9239 40.3596 14.0938 40.3596H26.9063C27.0763 40.3596 27.2392 40.2921 27.3593 40.1719C27.4795 40.0518 27.547 39.8889 27.547 39.719V38.2763C30.7853 36.9055 33.5466 34.6087 35.4842 31.6741C37.4217 28.7395 38.4492 25.298 38.4376 21.7815C38.4376 21.6115 38.3701 21.4486 38.25 21.3285C38.1298 21.2083 37.9669 21.1408 37.797 21.1408H32.2556C32.58 20.8416 32.8988 20.5364 33.212 20.2254C33.8131 19.6253 34.2407 18.8738 34.4492 18.0504C34.6578 17.2271 34.6396 16.3627 34.3965 15.5488L39.9488 13.4136C40.0418 13.3782 40.1252 13.3216 40.1924 13.2483C40.2597 13.1751 40.309 13.0872 40.3364 12.9916C40.3638 12.896 40.3686 12.7953 40.3504 12.6976C40.3321 12.5998 40.2914 12.5076 40.2313 12.4283L38.3095 9.86583C38.2585 9.79773 38.1944 9.74048 38.121 9.69741C38.0476 9.65435 37.9664 9.62633 37.8821 9.615C37.7978 9.60367 37.712 9.60925 37.6299 9.63142C37.5477 9.65359 37.4708 9.69189 37.4036 9.74411L35.2306 11.4347L38.3056 7.43786C38.3661 7.35936 38.4075 7.26791 38.4266 7.17069C38.4457 7.07348 38.4421 6.97316 38.4159 6.87761C38.3897 6.78206 38.3417 6.69388 38.2756 6.62002C38.2096 6.54616 38.1273 6.48863 38.0353 6.45194L34.8322 5.17069C34.6797 5.10981 34.5098 5.10977 34.3573 5.17056C34.2048 5.23136 34.0815 5.34835 34.0128 5.4974L30.8782 12.2823C30.5491 12.2099 30.2132 12.173 29.8763 12.1721ZM26.6687 37.2525C26.5497 37.3001 26.4477 37.3822 26.3759 37.4883C26.304 37.5944 26.2657 37.7196 26.2657 37.8477V39.0783H14.7345V37.8477C14.7345 37.7196 14.6961 37.5944 14.6243 37.4883C14.5525 37.3822 14.4505 37.3001 14.3315 37.2525C12.2229 36.4176 10.308 35.1588 8.70542 33.5541C7.10279 31.9493 5.8465 30.0328 5.01427 27.9231L7.6876 25.2498L10.4378 28C10.5579 28.1201 10.7209 28.1876 10.8907 28.1876C11.0606 28.1876 11.2235 28.1201 11.3436 28L14.0938 25.2498L16.844 28C16.9642 28.1201 17.1271 28.1876 17.297 28.1876C17.4668 28.1876 17.6298 28.1201 17.7499 28L20.5001 25.2498L23.2503 28C23.3704 28.1201 23.5334 28.1876 23.7032 28.1876C23.8731 28.1876 24.036 28.1201 24.1561 28L26.9063 25.2498L29.6566 28C29.7767 28.1201 29.9396 28.1876 30.1095 28.1876C30.2793 28.1876 30.4423 28.1201 30.5624 28L33.3126 25.2498L35.9859 27.9231C35.1537 30.0328 33.8974 31.9493 32.2948 33.5541C30.6922 35.1588 28.7773 36.4176 26.6687 37.2525ZM36.4517 26.5759L33.7668 23.891C33.6467 23.7709 33.4837 23.7035 33.3139 23.7035C33.144 23.7035 32.9811 23.7709 32.861 23.891L30.1095 26.6412L27.3593 23.891C27.2391 23.7709 27.0762 23.7035 26.9063 23.7035C26.7365 23.7035 26.5736 23.7709 26.4534 23.891L23.7032 26.6412L20.953 23.891C20.8329 23.7709 20.67 23.7035 20.5001 23.7035C20.3302 23.7035 20.1673 23.7709 20.0472 23.891L17.297 26.6412L14.5468 23.891C14.4266 23.7709 14.2637 23.7035 14.0938 23.7035C13.924 23.7035 13.7611 23.7709 13.6409 23.891L10.8907 26.6412L8.14052 23.891C8.02038 23.7709 7.85747 23.7035 7.6876 23.7035C7.51773 23.7035 7.35481 23.7709 7.23468 23.891L4.54853 26.5759C4.14356 25.226 3.91088 23.8303 3.85602 22.4221H37.1442C37.0893 23.8303 36.8566 25.226 36.4517 26.5759ZM32.3062 19.3195C31.6841 19.9416 31.0249 20.5431 30.3523 21.1184L28.6405 19.4067L27.7347 20.3125L28.563 21.1408H22.2701C23.3476 19.3173 24.5949 17.5996 25.9954 16.0107L27.7347 17.75L28.6405 16.8442L26.8615 15.0658C27.0537 14.8621 27.2459 14.6583 27.4464 14.4597C28.0908 13.8153 28.9649 13.4533 29.8763 13.4533C30.7877 13.4533 31.6617 13.8153 32.3062 14.4597C32.9506 15.1042 33.3127 15.9783 33.3127 16.8896C33.3127 17.801 32.9506 18.6751 32.3062 19.3195ZM37.6759 11.156L38.6977 12.5193L33.8629 14.3771C33.8264 14.3201 33.7911 14.2624 33.7527 14.2067L37.6759 11.156ZM34.9212 6.58647L36.772 7.32767L32.4529 12.9408C32.3344 12.8629 32.2126 12.7903 32.0877 12.723L34.9212 6.58647Z" fill="#CA3C3D"/>
<path d="M29.6566 15.8281L30.5625 14.9222L32.4844 16.8441L31.5785 17.75L29.6566 15.8281ZM23.7033 6.482V7.68765C23.7033 7.8067 23.7364 7.92341 23.799 8.02469C23.8615 8.12596 23.9511 8.2078 24.0576 8.26101L25.9071 9.18544C26.5741 9.51905 27.321 9.66029 28.0638 9.5933C28.8066 9.52632 29.5161 9.25376 30.1128 8.80619L31.7752 7.55953C31.874 7.48546 31.9493 7.38442 31.992 7.26855C32.0347 7.15269 32.0431 7.02695 32.016 6.90647C31.9889 6.78599 31.9276 6.6759 31.8394 6.58945C31.7512 6.503 31.6399 6.44389 31.5189 6.41922L30.36 6.18731C31.0706 5.72563 31.6544 5.09352 32.0582 4.34854C32.462 3.60357 32.673 2.76941 32.6721 1.92203C32.6721 1.75213 32.6046 1.58918 32.4844 1.46904C32.3643 1.3489 32.2013 1.2814 32.0314 1.2814H31.5984C30.6031 1.28043 29.622 1.51709 28.7366 1.97171C27.8512 2.42632 27.0871 3.08575 26.508 3.89515C26.3012 3.2942 25.9589 2.74886 25.5077 2.3013C25.0565 1.85375 24.5084 1.51596 23.9058 1.31408C23.8094 1.282 23.7069 1.27327 23.6065 1.2886C23.5062 1.30393 23.4109 1.34289 23.3286 1.40226C23.2463 1.46164 23.1792 1.53972 23.133 1.63009C23.0868 1.72046 23.0627 1.82052 23.0627 1.92203V3.76831C23.0621 4.33839 23.1937 4.90084 23.4471 5.41151C23.614 5.74376 23.7017 6.11017 23.7033 6.482ZM24.3439 2.98034C24.8867 3.40113 25.2597 4.00335 25.3946 4.67672L25.638 5.8939C25.666 6.0321 25.7388 6.15719 25.8451 6.2498C25.9514 6.3424 26.0854 6.39734 26.2261 6.4061C26.3668 6.41486 26.5065 6.37695 26.6235 6.29824C26.7405 6.21953 26.8282 6.10443 26.8731 5.97078C27.1887 5.02111 27.7835 4.18873 28.5796 3.58242C29.3758 2.9761 30.3363 2.62405 31.3357 2.57226C31.2187 3.24947 30.92 3.88223 30.4717 4.40311C30.0234 4.92399 29.4421 5.31346 28.7899 5.53003L27.9852 5.79845C27.8513 5.84317 27.7359 5.93089 27.657 6.04797C27.578 6.16506 27.54 6.30494 27.5487 6.44588C27.5575 6.58682 27.6126 6.72091 27.7054 6.82731C27.7983 6.9337 27.9237 7.00644 28.0621 7.03422L29.8604 7.39425L29.3479 7.77862C28.9385 8.07685 28.4557 8.25822 27.9512 8.30336C27.4467 8.34849 26.9395 8.25569 26.4836 8.03487L24.9846 7.29175V6.482C24.9851 5.91192 24.8536 5.34947 24.6002 4.83879C24.4332 4.50655 24.3455 4.14014 24.3439 3.76831V2.98034ZM5.76581 18.5462C6.43912 18.5481 7.1061 18.4164 7.72816 18.1587C8.35023 17.9011 8.91501 17.5226 9.38983 17.0453C9.50993 16.9251 9.5774 16.7622 9.5774 16.5923C9.5774 16.4225 9.50993 16.2596 9.38983 16.1394L3.04764 9.79723C2.92532 9.68135 2.76322 9.61676 2.59472 9.61676C2.42622 9.61676 2.26412 9.68135 2.1418 9.79723C1.42502 10.514 0.936878 11.4272 0.739113 12.4214C0.541348 13.4155 0.642841 14.446 1.03076 15.3825C1.41867 16.319 2.07558 17.1194 2.91842 17.6826C3.76126 18.2457 4.75216 18.5463 5.76581 18.5462ZM5.12519 17.2073C4.55461 17.1112 4.01334 16.8866 3.5422 16.5507L5.12519 14.9677V17.2073ZM2.63636 15.6449C2.30034 15.1738 2.0758 14.6325 1.97972 14.0619H4.22191L2.63636 15.6449ZM6.40644 17.2093V14.9671L7.99391 16.5539C7.52168 16.8906 6.97867 17.1148 6.40644 17.2093ZM2.63188 11.1938L4.21935 12.7806H1.97716C2.07199 12.2088 2.2959 11.6661 2.63188 11.1938ZM13.6519 9.3584C14.6676 9.61416 15.6203 10.0749 16.4514 10.7123C17.2825 11.3498 17.9744 12.1504 18.4848 13.0651L19.9403 15.6859C19.9957 15.7858 20.0768 15.8691 20.1753 15.9271C20.2737 15.9851 20.3859 16.0157 20.5002 16.0158C20.5544 16.0159 20.6085 16.009 20.661 15.9953C20.7984 15.9597 20.92 15.8794 21.0069 15.7672C21.0937 15.655 21.1408 15.5171 21.1408 15.3752V12.5494C21.1404 10.0861 20.2593 7.70417 18.6565 5.83369C18.1219 5.20921 17.4584 4.70798 16.7116 4.36448C15.9647 4.02099 15.1524 3.84339 14.3303 3.8439C13.7867 3.84425 13.2549 4.00284 12.7999 4.30031C12.3448 4.59779 11.9862 5.02129 11.7678 5.51914L9.05991 5.13156L8.87797 6.4L11.543 6.78053C11.5703 7.37995 11.7902 7.95457 12.1702 8.41899C12.5501 8.88342 13.0698 9.21288 13.6519 9.3584ZM14.3303 5.12515C14.9672 5.12499 15.5965 5.26281 16.175 5.52911C16.7535 5.79541 17.2674 6.18387 17.6814 6.66778C19.086 8.3056 19.8586 10.3917 19.8596 12.5494V12.9023L19.6033 12.443C19.0075 11.3751 18.1996 10.4404 17.2292 9.69619C16.2588 8.95201 15.1466 8.41412 13.9607 8.11559C13.6008 8.02611 13.2861 7.80794 13.0761 7.5023C12.866 7.19665 12.7752 6.82467 12.8207 6.45662C12.8662 6.08856 13.0449 5.7499 13.323 5.50459C13.6011 5.25929 13.9595 5.12431 14.3303 5.12515Z" fill="#CA3C3D"/>
</g>
<defs>
<clipPath id="clip0_3068_4902">
<rect width="41" height="41" fill="white"/>
</clipPath>
</defs>
</svg>
