<svg width="200" height="80" viewBox="0 0 200 80" fill="none" xmlns="http://www.w3.org/2000/svg">
<rect width="200" height="80" fill="url(#pattern0)"/>
<path d="M6 45.2231L7.05417 42.7308C8.10833 43.6308 9.7125 44.3462 11.3167 44.3462C13.2646 44.3462 13.975 43.6308 13.975 42.7308C13.975 40.0538 6.18333 41.8308 6.18333 36.4769C6.18333 33.9615 8.13125 32 11.8438 32C13.4479 32 15.2125 32.3462 16.45 33.2462L15.3958 35.7385C14.1583 35.0231 12.9208 34.6769 11.8438 34.6769C10.0792 34.6769 9.36875 35.3923 9.36875 36.2923C9.36875 38.9692 17 37.1923 17 42.5462C17 44.8538 15.0521 47 11.3167 47C9.18542 47 7.2375 46.2846 6 45.2231Z" fill="#CA3C3D"/>
<path d="M21.9862 44.3462L21.1336 47H18L23.9908 32H27.0323L33 47H29.7742L25.4885 35.3231L23.5991 40.1692L22.3779 43.4923L21.9862 44.3462Z" fill="#CA3C3D"/>
<path d="M47 37.4462C47 40.6308 44.6797 42.8923 41 42.8923H40.5313V40.1923H41C42.8516 40.1923 43.7656 38.8308 43.7656 37.4692C43.7656 35.6462 42.8516 34.7462 41 34.7462H38.2344V47H35V32H41C44.6797 32 47 34.2846 47 37.4462Z" fill="#CA3C3D"/>
<path d="M49 32H52V47H49V32Z" fill="#CA3C3D"/>
<path d="M54 34.6308V32H64V34.6308H54ZM64 44V47H54V38H62.9231V40.6308H56.8571V44H64Z" fill="#CA3C3D"/>
<path d="M79 32V47H76.3339L69.3267 37.8615V47H66V32H68.6661L75.6733 41.1385V32H79Z" fill="#CA3C3D"/>
<path d="M119 34.6308V32H129V34.6308H119ZM129 44V47H119V38H127.923V40.6308H121.857V44H129Z" fill="#CA3C3D"/>
<path d="M131.023 32H134.151V44.1154H141V47H131V32H131.023Z" fill="#CA3C3D"/>
<path d="M143 34.6308V32H153V34.6308H143ZM153 44V47H143V38H151.923V40.6308H145.857V44H153Z" fill="#CA3C3D"/>
<path d="M167 32L161.092 47H157.908L152 32H155.438L159.615 42.5692L163.815 32H167Z" fill="#CA3C3D"/>
<path d="M169 34.6308V32H179V34.6308H169ZM179 44V47H169V38H177.923V40.6308H171.857V44H179Z" fill="#CA3C3D"/>
<path d="M194 32V47H191.334L184.327 37.8615V47H181V32H183.666L190.673 41.1385V32H194Z" fill="#CA3C3D"/>
<path d="M88 51.3304V43.4342C88 43.102 88.3659 42.8978 88.6517 43.0704L99.4539 49.595C99.5918 49.6783 99.7652 49.6776 99.9024 49.5933L103.564 47.3434C103.69 47.2658 103.767 47.1288 103.767 46.9814V38.8151C103.767 38.4783 104.142 38.2748 104.428 38.4569L110.803 42.5227C110.926 42.601 111 42.736 111 42.8809V51.3343C111 51.4764 110.929 51.6091 110.81 51.6882L99.9135 58.9281C99.771 59.0227 99.5855 59.0241 99.4416 58.9314L88.1955 51.6876C88.0736 51.6091 88 51.4746 88 51.3304Z" fill="#CA3C3D"/>
<path d="M102.452 46.3528V37.2691L100.365 35.9208V44.9761L102.452 46.3528Z" fill="#CA3C3D"/>
<path d="M98.6924 43.9683V34.8847L96.6053 33.5363V42.5916L98.6924 43.9683Z" fill="#CA3C3D"/>
<path d="M95.3045 32.8838V40.9661C95.3045 41.3047 94.9259 41.5078 94.6407 41.3223L88.4082 37.2675C88.2873 37.1888 88.2144 37.0549 88.2144 36.9113V28.473C88.2144 28.3291 88.2877 28.1949 88.4092 28.1163L99.3031 21.069C99.4447 20.9775 99.6272 20.977 99.7692 21.0677L110.803 28.1165C110.926 28.1949 111 28.3298 111 28.4746V36.3628C111 36.6994 110.625 36.9029 110.34 36.7213L99.7722 29.9965C99.6286 29.9052 99.4441 29.907 99.3023 30.0011L95.4949 32.5299C95.376 32.6089 95.3045 32.7417 95.3045 32.8838Z" fill="#CA3C3D"/>
</svg>
