<svg width="83" height="138" viewBox="0 0 83 138" fill="none" xmlns="http://www.w3.org/2000/svg">
<g id="Vector">
<path d="M0 110.147V81.4714C0 80.2653 1.32054 79.5235 2.35183 80.1504L41.3336 103.845C41.8313 104.148 42.4569 104.145 42.9522 103.839L56.1649 95.6682C56.6207 95.3864 56.8981 94.8889 56.8981 94.3533V64.697C56.8981 63.4739 58.252 62.7349 59.2819 63.3959L82.2888 78.1613C82.732 78.4458 83 78.936 83 79.4624V110.161C83 110.677 82.7424 111.16 82.3131 111.447L42.9923 137.739C42.4781 138.083 41.8084 138.087 41.2894 137.751L0.705324 111.444C0.265468 111.159 0 110.671 0 110.147Z" fill="#CA3C3D"/>
<path d="M52.1523 92.0707V59.0826L44.6209 54.186V87.0709L52.1523 92.0707Z" fill="#CA3C3D"/>
<path d="M38.5855 83.4113V50.4233L31.0541 45.5266V78.4116L38.5855 83.4113Z" fill="#CA3C3D"/>
<path d="M26.3599 43.1569V72.5086C26.3599 73.738 24.9933 74.4758 23.9642 73.802L1.47316 59.0767C1.03672 58.7909 0.773773 58.3046 0.773773 57.7833V27.1389C0.773773 26.6161 1.03816 26.1287 1.47654 25.8433L40.7895 0.250714C41.3003 -0.0818203 41.9589 -0.0837024 42.4716 0.245905L82.2898 25.8442C82.7325 26.1288 83 26.6187 83 27.1446V55.7911C83 57.0135 81.6474 57.7526 80.6174 57.093L42.4821 32.6716C41.964 32.3398 41.2982 32.3463 40.7867 32.6882L27.047 41.8717C26.6176 42.1586 26.3599 42.6408 26.3599 43.1569Z" fill="#CA3C3D"/>
</g>
</svg>
